<?xml version="1.0" encoding="utf-8" standalone="no"?>
<!DOCTYPE svg PUBLIC "-//W3C//DTD SVG 1.1//EN"
  "http://www.w3.org/Graphics/SVG/1.1/DTD/svg11.dtd">
<!-- Created with matplotlib (http://matplotlib.org/) -->
<svg height="237.886875pt" version="1.1" viewBox="0 0 428.940938 237.886875" width="428.940938pt" xmlns="http://www.w3.org/2000/svg" xmlns:xlink="http://www.w3.org/1999/xlink">
 <defs>
  <style type="text/css">
*{stroke-linecap:butt;stroke-linejoin:round;}
  </style>
 </defs>
 <g id="figure_1">
  <g id="patch_1">
   <path d="M 0 237.886875 
L 428.940938 237.886875 
L 428.940938 -0 
L 0 -0 
z
" style="fill:#ffffff;"/>
  </g>
  <g id="axes_1">
   <g id="patch_2">
    <path d="M 52.160938 212.59375 
L 414.860937 212.59375 
L 414.860937 46.27375 
L 52.160938 46.27375 
z
" style="fill:#eaeaf2;"/>
   </g>
   <g id="matplotlib.axis_1">
    <g id="xtick_1">
     <g id="line2d_1">
      <defs>
       <path d="M 0 0 
L 0 -3.5 
" id="me333a7d1c5" style="stroke:#262626;stroke-width:0.8;"/>
      </defs>
      <g>
       <use style="fill:#262626;stroke:#262626;stroke-width:0.8;" x="88.430938" xlink:href="#me333a7d1c5" y="46.27375"/>
      </g>
     </g>
     <g id="text_1">
      <!-- PMcomp -->
      <defs>
       <path d="M 19.671875 64.796875 
L 19.671875 37.40625 
L 32.078125 37.40625 
Q 38.96875 37.40625 42.71875 40.96875 
Q 46.484375 44.53125 46.484375 51.125 
Q 46.484375 57.671875 42.71875 61.234375 
Q 38.96875 64.796875 32.078125 64.796875 
z
M 9.8125 72.90625 
L 32.078125 72.90625 
Q 44.34375 72.90625 50.609375 67.359375 
Q 56.890625 61.8125 56.890625 51.125 
Q 56.890625 40.328125 50.609375 34.8125 
Q 44.34375 29.296875 32.078125 29.296875 
L 19.671875 29.296875 
L 19.671875 0 
L 9.8125 0 
z
" id="DejaVuSans-50"/>
       <path d="M 9.8125 72.90625 
L 24.515625 72.90625 
L 43.109375 23.296875 
L 61.8125 72.90625 
L 76.515625 72.90625 
L 76.515625 0 
L 66.890625 0 
L 66.890625 64.015625 
L 48.09375 14.015625 
L 38.1875 14.015625 
L 19.390625 64.015625 
L 19.390625 0 
L 9.8125 0 
z
" id="DejaVuSans-4d"/>
       <path d="M 48.78125 52.59375 
L 48.78125 44.1875 
Q 44.96875 46.296875 41.140625 47.34375 
Q 37.3125 48.390625 33.40625 48.390625 
Q 24.65625 48.390625 19.8125 42.84375 
Q 14.984375 37.3125 14.984375 27.296875 
Q 14.984375 17.28125 19.8125 11.734375 
Q 24.65625 6.203125 33.40625 6.203125 
Q 37.3125 6.203125 41.140625 7.25 
Q 44.96875 8.296875 48.78125 10.40625 
L 48.78125 2.09375 
Q 45.015625 0.34375 40.984375 -0.53125 
Q 36.96875 -1.421875 32.421875 -1.421875 
Q 20.0625 -1.421875 12.78125 6.34375 
Q 5.515625 14.109375 5.515625 27.296875 
Q 5.515625 40.671875 12.859375 48.328125 
Q 20.21875 56 33.015625 56 
Q 37.15625 56 41.109375 55.140625 
Q 45.0625 54.296875 48.78125 52.59375 
z
" id="DejaVuSans-63"/>
       <path d="M 30.609375 48.390625 
Q 23.390625 48.390625 19.1875 42.75 
Q 14.984375 37.109375 14.984375 27.296875 
Q 14.984375 17.484375 19.15625 11.84375 
Q 23.34375 6.203125 30.609375 6.203125 
Q 37.796875 6.203125 41.984375 11.859375 
Q 46.1875 17.53125 46.1875 27.296875 
Q 46.1875 37.015625 41.984375 42.703125 
Q 37.796875 48.390625 30.609375 48.390625 
z
M 30.609375 56 
Q 42.328125 56 49.015625 48.375 
Q 55.71875 40.765625 55.71875 27.296875 
Q 55.71875 13.875 49.015625 6.21875 
Q 42.328125 -1.421875 30.609375 -1.421875 
Q 18.84375 -1.421875 12.171875 6.21875 
Q 5.515625 13.875 5.515625 27.296875 
Q 5.515625 40.765625 12.171875 48.375 
Q 18.84375 56 30.609375 56 
z
" id="DejaVuSans-6f"/>
       <path d="M 52 44.1875 
Q 55.375 50.25 60.0625 53.125 
Q 64.75 56 71.09375 56 
Q 79.640625 56 84.28125 50.015625 
Q 88.921875 44.046875 88.921875 33.015625 
L 88.921875 0 
L 79.890625 0 
L 79.890625 32.71875 
Q 79.890625 40.578125 77.09375 44.375 
Q 74.3125 48.1875 68.609375 48.1875 
Q 61.625 48.1875 57.5625 43.546875 
Q 53.515625 38.921875 53.515625 30.90625 
L 53.515625 0 
L 44.484375 0 
L 44.484375 32.71875 
Q 44.484375 40.625 41.703125 44.40625 
Q 38.921875 48.1875 33.109375 48.1875 
Q 26.21875 48.1875 22.15625 43.53125 
Q 18.109375 38.875 18.109375 30.90625 
L 18.109375 0 
L 9.078125 0 
L 9.078125 54.6875 
L 18.109375 54.6875 
L 18.109375 46.1875 
Q 21.1875 51.21875 25.484375 53.609375 
Q 29.78125 56 35.6875 56 
Q 41.65625 56 45.828125 52.96875 
Q 50 49.953125 52 44.1875 
z
" id="DejaVuSans-6d"/>
       <path d="M 18.109375 8.203125 
L 18.109375 -20.796875 
L 9.078125 -20.796875 
L 9.078125 54.6875 
L 18.109375 54.6875 
L 18.109375 46.390625 
Q 20.953125 51.265625 25.265625 53.625 
Q 29.59375 56 35.59375 56 
Q 45.5625 56 51.78125 48.09375 
Q 58.015625 40.1875 58.015625 27.296875 
Q 58.015625 14.40625 51.78125 6.484375 
Q 45.5625 -1.421875 35.59375 -1.421875 
Q 29.59375 -1.421875 25.265625 0.953125 
Q 20.953125 3.328125 18.109375 8.203125 
z
M 48.6875 27.296875 
Q 48.6875 37.203125 44.609375 42.84375 
Q 40.53125 48.484375 33.40625 48.484375 
Q 26.265625 48.484375 22.1875 42.84375 
Q 18.109375 37.203125 18.109375 27.296875 
Q 18.109375 17.390625 22.1875 11.75 
Q 26.265625 6.109375 33.40625 6.109375 
Q 40.53125 6.109375 44.609375 11.75 
Q 48.6875 17.390625 48.6875 27.296875 
z
" id="DejaVuSans-70"/>
      </defs>
      <g style="fill:#262626;" transform="translate(67.248906 25.99625)scale(0.1 -0.1)">
       <use xlink:href="#DejaVuSans-50"/>
       <use x="60.302734" xlink:href="#DejaVuSans-4d"/>
       <use x="146.582031" xlink:href="#DejaVuSans-63"/>
       <use x="201.5625" xlink:href="#DejaVuSans-6f"/>
       <use x="262.744141" xlink:href="#DejaVuSans-6d"/>
       <use x="360.15625" xlink:href="#DejaVuSans-70"/>
      </g>
      <!-- energy -->
      <defs>
       <path d="M 56.203125 29.59375 
L 56.203125 25.203125 
L 14.890625 25.203125 
Q 15.484375 15.921875 20.484375 11.0625 
Q 25.484375 6.203125 34.421875 6.203125 
Q 39.59375 6.203125 44.453125 7.46875 
Q 49.3125 8.734375 54.109375 11.28125 
L 54.109375 2.78125 
Q 49.265625 0.734375 44.1875 -0.34375 
Q 39.109375 -1.421875 33.890625 -1.421875 
Q 20.796875 -1.421875 13.15625 6.1875 
Q 5.515625 13.8125 5.515625 26.8125 
Q 5.515625 40.234375 12.765625 48.109375 
Q 20.015625 56 32.328125 56 
Q 43.359375 56 49.78125 48.890625 
Q 56.203125 41.796875 56.203125 29.59375 
z
M 47.21875 32.234375 
Q 47.125 39.59375 43.09375 43.984375 
Q 39.0625 48.390625 32.421875 48.390625 
Q 24.90625 48.390625 20.390625 44.140625 
Q 15.875 39.890625 15.1875 32.171875 
z
" id="DejaVuSans-65"/>
       <path d="M 54.890625 33.015625 
L 54.890625 0 
L 45.90625 0 
L 45.90625 32.71875 
Q 45.90625 40.484375 42.875 44.328125 
Q 39.84375 48.1875 33.796875 48.1875 
Q 26.515625 48.1875 22.3125 43.546875 
Q 18.109375 38.921875 18.109375 30.90625 
L 18.109375 0 
L 9.078125 0 
L 9.078125 54.6875 
L 18.109375 54.6875 
L 18.109375 46.1875 
Q 21.34375 51.125 25.703125 53.5625 
Q 30.078125 56 35.796875 56 
Q 45.21875 56 50.046875 50.171875 
Q 54.890625 44.34375 54.890625 33.015625 
z
" id="DejaVuSans-6e"/>
       <path d="M 41.109375 46.296875 
Q 39.59375 47.171875 37.8125 47.578125 
Q 36.03125 48 33.890625 48 
Q 26.265625 48 22.1875 43.046875 
Q 18.109375 38.09375 18.109375 28.8125 
L 18.109375 0 
L 9.078125 0 
L 9.078125 54.6875 
L 18.109375 54.6875 
L 18.109375 46.1875 
Q 20.953125 51.171875 25.484375 53.578125 
Q 30.03125 56 36.53125 56 
Q 37.453125 56 38.578125 55.875 
Q 39.703125 55.765625 41.0625 55.515625 
z
" id="DejaVuSans-72"/>
       <path d="M 45.40625 27.984375 
Q 45.40625 37.75 41.375 43.109375 
Q 37.359375 48.484375 30.078125 48.484375 
Q 22.859375 48.484375 18.828125 43.109375 
Q 14.796875 37.75 14.796875 27.984375 
Q 14.796875 18.265625 18.828125 12.890625 
Q 22.859375 7.515625 30.078125 7.515625 
Q 37.359375 7.515625 41.375 12.890625 
Q 45.40625 18.265625 45.40625 27.984375 
z
M 54.390625 6.78125 
Q 54.390625 -7.171875 48.1875 -13.984375 
Q 42 -20.796875 29.203125 -20.796875 
Q 24.46875 -20.796875 20.265625 -20.09375 
Q 16.0625 -19.390625 12.109375 -17.921875 
L 12.109375 -9.1875 
Q 16.0625 -11.328125 19.921875 -12.34375 
Q 23.78125 -13.375 27.78125 -13.375 
Q 36.625 -13.375 41.015625 -8.765625 
Q 45.40625 -4.15625 45.40625 5.171875 
L 45.40625 9.625 
Q 42.625 4.78125 38.28125 2.390625 
Q 33.9375 0 27.875 0 
Q 17.828125 0 11.671875 7.65625 
Q 5.515625 15.328125 5.515625 27.984375 
Q 5.515625 40.671875 11.671875 48.328125 
Q 17.828125 56 27.875 56 
Q 33.9375 56 38.28125 53.609375 
Q 42.625 51.21875 45.40625 46.390625 
L 45.40625 54.6875 
L 54.390625 54.6875 
z
" id="DejaVuSans-67"/>
       <path d="M 32.171875 -5.078125 
Q 28.375 -14.84375 24.75 -17.8125 
Q 21.140625 -20.796875 15.09375 -20.796875 
L 7.90625 -20.796875 
L 7.90625 -13.28125 
L 13.1875 -13.28125 
Q 16.890625 -13.28125 18.9375 -11.515625 
Q 21 -9.765625 23.484375 -3.21875 
L 25.09375 0.875 
L 2.984375 54.6875 
L 12.5 54.6875 
L 29.59375 11.921875 
L 46.6875 54.6875 
L 56.203125 54.6875 
z
" id="DejaVuSans-79"/>
      </defs>
      <g style="fill:#262626;" transform="translate(70.920781 37.194063)scale(0.1 -0.1)">
       <use xlink:href="#DejaVuSans-65"/>
       <use x="61.523438" xlink:href="#DejaVuSans-6e"/>
       <use x="124.902344" xlink:href="#DejaVuSans-65"/>
       <use x="186.425781" xlink:href="#DejaVuSans-72"/>
       <use x="227.523438" xlink:href="#DejaVuSans-67"/>
       <use x="291" xlink:href="#DejaVuSans-79"/>
      </g>
     </g>
    </g>
    <g id="xtick_2">
     <g id="line2d_2">
      <g>
       <use style="fill:#262626;stroke:#262626;stroke-width:0.8;" x="160.970938" xlink:href="#me333a7d1c5" y="46.27375"/>
      </g>
     </g>
     <g id="text_2">
      <!-- PMcomp score -->
      <defs>
       <path id="DejaVuSans-20"/>
       <path d="M 44.28125 53.078125 
L 44.28125 44.578125 
Q 40.484375 46.53125 36.375 47.5 
Q 32.28125 48.484375 27.875 48.484375 
Q 21.1875 48.484375 17.84375 46.4375 
Q 14.5 44.390625 14.5 40.28125 
Q 14.5 37.15625 16.890625 35.375 
Q 19.28125 33.59375 26.515625 31.984375 
L 29.59375 31.296875 
Q 39.15625 29.25 43.1875 25.515625 
Q 47.21875 21.78125 47.21875 15.09375 
Q 47.21875 7.46875 41.1875 3.015625 
Q 35.15625 -1.421875 24.609375 -1.421875 
Q 20.21875 -1.421875 15.453125 -0.5625 
Q 10.6875 0.296875 5.421875 2 
L 5.421875 11.28125 
Q 10.40625 8.6875 15.234375 7.390625 
Q 20.0625 6.109375 24.8125 6.109375 
Q 31.15625 6.109375 34.5625 8.28125 
Q 37.984375 10.453125 37.984375 14.40625 
Q 37.984375 18.0625 35.515625 20.015625 
Q 33.0625 21.96875 24.703125 23.78125 
L 21.578125 24.515625 
Q 13.234375 26.265625 9.515625 29.90625 
Q 5.8125 33.546875 5.8125 39.890625 
Q 5.8125 47.609375 11.28125 51.796875 
Q 16.75 56 26.8125 56 
Q 31.78125 56 36.171875 55.265625 
Q 40.578125 54.546875 44.28125 53.078125 
z
" id="DejaVuSans-73"/>
      </defs>
      <g style="fill:#262626;" transform="translate(124.656094 25.974063)scale(0.1 -0.1)">
       <use xlink:href="#DejaVuSans-50"/>
       <use x="60.302734" xlink:href="#DejaVuSans-4d"/>
       <use x="146.582031" xlink:href="#DejaVuSans-63"/>
       <use x="201.5625" xlink:href="#DejaVuSans-6f"/>
       <use x="262.744141" xlink:href="#DejaVuSans-6d"/>
       <use x="360.15625" xlink:href="#DejaVuSans-70"/>
       <use x="423.632812" xlink:href="#DejaVuSans-20"/>
       <use x="455.419922" xlink:href="#DejaVuSans-73"/>
       <use x="507.519531" xlink:href="#DejaVuSans-63"/>
       <use x="562.5" xlink:href="#DejaVuSans-6f"/>
       <use x="623.681641" xlink:href="#DejaVuSans-72"/>
       <use x="664.763672" xlink:href="#DejaVuSans-65"/>
      </g>
      <!-- $(P_{min}=1/(2\cdot$seq-len$))$ -->
      <defs>
       <path d="M 31 75.875 
Q 24.46875 64.65625 21.28125 53.65625 
Q 18.109375 42.671875 18.109375 31.390625 
Q 18.109375 20.125 21.3125 9.0625 
Q 24.515625 -2 31 -13.1875 
L 23.1875 -13.1875 
Q 15.875 -1.703125 12.234375 9.375 
Q 8.59375 20.453125 8.59375 31.390625 
Q 8.59375 42.28125 12.203125 53.3125 
Q 15.828125 64.359375 23.1875 75.875 
z
" id="DejaVuSans-28"/>
       <path d="M 16.890625 72.90625 
L 39.703125 72.90625 
Q 49.65625 72.90625 54.875 68.265625 
Q 60.109375 63.625 60.109375 54.6875 
Q 60.109375 42.671875 52.390625 35.984375 
Q 44.671875 29.296875 30.71875 29.296875 
L 18.3125 29.296875 
L 12.59375 0 
L 2.6875 0 
z
M 25.203125 64.796875 
L 19.921875 37.40625 
L 32.328125 37.40625 
Q 40.71875 37.40625 45.203125 41.703125 
Q 49.703125 46 49.703125 54 
Q 49.703125 59.125 46.65625 61.953125 
Q 43.609375 64.796875 38.09375 64.796875 
z
" id="DejaVuSans-Oblique-50"/>
       <path d="M 89.796875 33.015625 
L 83.40625 0 
L 74.421875 0 
L 80.71875 32.71875 
Q 81.109375 34.8125 81.296875 36.328125 
Q 81.5 37.84375 81.5 38.921875 
Q 81.5 43.3125 79.046875 45.75 
Q 76.609375 48.1875 72.21875 48.1875 
Q 65.671875 48.1875 60.546875 43.28125 
Q 55.421875 38.375 53.90625 30.515625 
L 47.90625 0 
L 38.921875 0 
L 45.3125 32.71875 
Q 45.703125 34.515625 45.890625 36.046875 
Q 46.09375 37.59375 46.09375 38.8125 
Q 46.09375 43.265625 43.65625 45.71875 
Q 41.21875 48.1875 36.921875 48.1875 
Q 30.28125 48.1875 25.140625 43.28125 
Q 20.015625 38.375 18.5 30.515625 
L 12.5 0 
L 3.515625 0 
L 14.203125 54.6875 
L 23.1875 54.6875 
L 21.484375 46.1875 
Q 25.140625 50.984375 30.046875 53.484375 
Q 34.96875 56 40.578125 56 
Q 46.53125 56 50.359375 52.875 
Q 54.203125 49.75 54.984375 44.1875 
Q 59.078125 49.953125 64.46875 52.96875 
Q 69.875 56 75.875 56 
Q 82.90625 56 86.734375 51.953125 
Q 90.578125 47.90625 90.578125 40.484375 
Q 90.578125 38.875 90.375 36.9375 
Q 90.1875 35.015625 89.796875 33.015625 
z
" id="DejaVuSans-Oblique-6d"/>
       <path d="M 18.3125 75.984375 
L 27.296875 75.984375 
L 25.09375 64.59375 
L 16.109375 64.59375 
z
M 14.203125 54.6875 
L 23.1875 54.6875 
L 12.5 0 
L 3.515625 0 
z
" id="DejaVuSans-Oblique-69"/>
       <path d="M 55.71875 33.015625 
L 49.3125 0 
L 40.28125 0 
L 46.6875 32.671875 
Q 47.125 34.96875 47.359375 36.71875 
Q 47.609375 38.484375 47.609375 39.5 
Q 47.609375 43.609375 45.015625 45.890625 
Q 42.4375 48.1875 37.796875 48.1875 
Q 30.5625 48.1875 25.34375 43.375 
Q 20.125 38.578125 18.5 30.328125 
L 12.5 0 
L 3.515625 0 
L 14.109375 54.6875 
L 23.09375 54.6875 
L 21.296875 46.09375 
Q 25.046875 50.828125 30.3125 53.40625 
Q 35.59375 56 41.40625 56 
Q 48.640625 56 52.609375 52.09375 
Q 56.59375 48.1875 56.59375 41.109375 
Q 56.59375 39.359375 56.375 37.359375 
Q 56.15625 35.359375 55.71875 33.015625 
z
" id="DejaVuSans-Oblique-6e"/>
       <path d="M 10.59375 45.40625 
L 73.1875 45.40625 
L 73.1875 37.203125 
L 10.59375 37.203125 
z
M 10.59375 25.484375 
L 73.1875 25.484375 
L 73.1875 17.1875 
L 10.59375 17.1875 
z
" id="DejaVuSans-3d"/>
       <path d="M 12.40625 8.296875 
L 28.515625 8.296875 
L 28.515625 63.921875 
L 10.984375 60.40625 
L 10.984375 69.390625 
L 28.421875 72.90625 
L 38.28125 72.90625 
L 38.28125 8.296875 
L 54.390625 8.296875 
L 54.390625 0 
L 12.40625 0 
z
" id="DejaVuSans-31"/>
       <path d="M 25.390625 72.90625 
L 33.6875 72.90625 
L 8.296875 -9.28125 
L 0 -9.28125 
z
" id="DejaVuSans-2f"/>
       <path d="M 19.1875 8.296875 
L 53.609375 8.296875 
L 53.609375 0 
L 7.328125 0 
L 7.328125 8.296875 
Q 12.9375 14.109375 22.625 23.890625 
Q 32.328125 33.6875 34.8125 36.53125 
Q 39.546875 41.84375 41.421875 45.53125 
Q 43.3125 49.21875 43.3125 52.78125 
Q 43.3125 58.59375 39.234375 62.25 
Q 35.15625 65.921875 28.609375 65.921875 
Q 23.96875 65.921875 18.8125 64.3125 
Q 13.671875 62.703125 7.8125 59.421875 
L 7.8125 69.390625 
Q 13.765625 71.78125 18.9375 73 
Q 24.125 74.21875 28.421875 74.21875 
Q 39.75 74.21875 46.484375 68.546875 
Q 53.21875 62.890625 53.21875 53.421875 
Q 53.21875 48.921875 51.53125 44.890625 
Q 49.859375 40.875 45.40625 35.40625 
Q 44.1875 33.984375 37.640625 27.21875 
Q 31.109375 20.453125 19.1875 8.296875 
z
" id="DejaVuSans-32"/>
       <path d="M 10.6875 40.921875 
L 21 40.921875 
L 21 28.515625 
L 10.6875 28.515625 
z
" id="DejaVuSans-22c5"/>
       <path d="M 14.796875 27.296875 
Q 14.796875 17.390625 18.875 11.75 
Q 22.953125 6.109375 30.078125 6.109375 
Q 37.203125 6.109375 41.296875 11.75 
Q 45.40625 17.390625 45.40625 27.296875 
Q 45.40625 37.203125 41.296875 42.84375 
Q 37.203125 48.484375 30.078125 48.484375 
Q 22.953125 48.484375 18.875 42.84375 
Q 14.796875 37.203125 14.796875 27.296875 
z
M 45.40625 8.203125 
Q 42.578125 3.328125 38.25 0.953125 
Q 33.9375 -1.421875 27.875 -1.421875 
Q 17.96875 -1.421875 11.734375 6.484375 
Q 5.515625 14.40625 5.515625 27.296875 
Q 5.515625 40.1875 11.734375 48.09375 
Q 17.96875 56 27.875 56 
Q 33.9375 56 38.25 53.625 
Q 42.578125 51.265625 45.40625 46.390625 
L 45.40625 54.6875 
L 54.390625 54.6875 
L 54.390625 -20.796875 
L 45.40625 -20.796875 
z
" id="DejaVuSans-71"/>
       <path d="M 4.890625 31.390625 
L 31.203125 31.390625 
L 31.203125 23.390625 
L 4.890625 23.390625 
z
" id="DejaVuSans-2d"/>
       <path d="M 9.421875 75.984375 
L 18.40625 75.984375 
L 18.40625 0 
L 9.421875 0 
z
" id="DejaVuSans-6c"/>
       <path d="M 8.015625 75.875 
L 15.828125 75.875 
Q 23.140625 64.359375 26.78125 53.3125 
Q 30.421875 42.28125 30.421875 31.390625 
Q 30.421875 20.453125 26.78125 9.375 
Q 23.140625 -1.703125 15.828125 -13.1875 
L 8.015625 -13.1875 
Q 14.5 -2 17.703125 9.0625 
Q 20.90625 20.125 20.90625 31.390625 
Q 20.90625 42.671875 17.703125 53.65625 
Q 14.5 64.65625 8.015625 75.875 
z
" id="DejaVuSans-29"/>
      </defs>
      <g style="fill:#262626;" transform="translate(107.370938 37.17375)scale(0.1 -0.1)">
       <use transform="translate(0 0.015625)" xlink:href="#DejaVuSans-28"/>
       <use transform="translate(39.013672 0.015625)" xlink:href="#DejaVuSans-Oblique-50"/>
       <use transform="translate(99.316406 -16.390625)scale(0.7)" xlink:href="#DejaVuSans-Oblique-6d"/>
       <use transform="translate(167.504883 -16.390625)scale(0.7)" xlink:href="#DejaVuSans-Oblique-69"/>
       <use transform="translate(186.953125 -16.390625)scale(0.7)" xlink:href="#DejaVuSans-Oblique-6e"/>
       <use transform="translate(253.535156 0.015625)" xlink:href="#DejaVuSans-3d"/>
       <use transform="translate(356.806641 0.015625)" xlink:href="#DejaVuSans-31"/>
       <use transform="translate(420.429688 0.015625)" xlink:href="#DejaVuSans-2f"/>
       <use transform="translate(454.121094 0.015625)" xlink:href="#DejaVuSans-28"/>
       <use transform="translate(493.134766 0.015625)" xlink:href="#DejaVuSans-32"/>
       <use transform="translate(576.240234 0.015625)" xlink:href="#DejaVuSans-22c5"/>
       <use transform="translate(627.509766 0.015625)" xlink:href="#DejaVuSans-73"/>
       <use transform="translate(679.609375 0.015625)" xlink:href="#DejaVuSans-65"/>
       <use transform="translate(741.132812 0.015625)" xlink:href="#DejaVuSans-71"/>
       <use transform="translate(804.609375 0.015625)" xlink:href="#DejaVuSans-2d"/>
       <use transform="translate(840.693359 0.015625)" xlink:href="#DejaVuSans-6c"/>
       <use transform="translate(868.476562 0.015625)" xlink:href="#DejaVuSans-65"/>
       <use transform="translate(930 0.015625)" xlink:href="#DejaVuSans-6e"/>
       <use transform="translate(993.378906 0.015625)" xlink:href="#DejaVuSans-29"/>
       <use transform="translate(1032.392578 0.015625)" xlink:href="#DejaVuSans-29"/>
      </g>
     </g>
    </g>
    <g id="xtick_3">
     <g id="line2d_3">
      <g>
       <use style="fill:#262626;stroke:#262626;stroke-width:0.8;" x="233.510938" xlink:href="#me333a7d1c5" y="46.27375"/>
      </g>
     </g>
     <g id="text_3">
      <!-- Pankov -->
      <defs>
       <path d="M 34.28125 27.484375 
Q 23.390625 27.484375 19.1875 25 
Q 14.984375 22.515625 14.984375 16.5 
Q 14.984375 11.71875 18.140625 8.90625 
Q 21.296875 6.109375 26.703125 6.109375 
Q 34.1875 6.109375 38.703125 11.40625 
Q 43.21875 16.703125 43.21875 25.484375 
L 43.21875 27.484375 
z
M 52.203125 31.203125 
L 52.203125 0 
L 43.21875 0 
L 43.21875 8.296875 
Q 40.140625 3.328125 35.546875 0.953125 
Q 30.953125 -1.421875 24.3125 -1.421875 
Q 15.921875 -1.421875 10.953125 3.296875 
Q 6 8.015625 6 15.921875 
Q 6 25.140625 12.171875 29.828125 
Q 18.359375 34.515625 30.609375 34.515625 
L 43.21875 34.515625 
L 43.21875 35.40625 
Q 43.21875 41.609375 39.140625 45 
Q 35.0625 48.390625 27.6875 48.390625 
Q 23 48.390625 18.546875 47.265625 
Q 14.109375 46.140625 10.015625 43.890625 
L 10.015625 52.203125 
Q 14.9375 54.109375 19.578125 55.046875 
Q 24.21875 56 28.609375 56 
Q 40.484375 56 46.34375 49.84375 
Q 52.203125 43.703125 52.203125 31.203125 
z
" id="DejaVuSans-61"/>
       <path d="M 9.078125 75.984375 
L 18.109375 75.984375 
L 18.109375 31.109375 
L 44.921875 54.6875 
L 56.390625 54.6875 
L 27.390625 29.109375 
L 57.625 0 
L 45.90625 0 
L 18.109375 26.703125 
L 18.109375 0 
L 9.078125 0 
z
" id="DejaVuSans-6b"/>
       <path d="M 2.984375 54.6875 
L 12.5 54.6875 
L 29.59375 8.796875 
L 46.6875 54.6875 
L 56.203125 54.6875 
L 35.6875 0 
L 23.484375 0 
z
" id="DejaVuSans-76"/>
      </defs>
      <g style="fill:#262626;" transform="translate(215.354688 14.798438)scale(0.1 -0.1)">
       <use xlink:href="#DejaVuSans-50"/>
       <use x="60.240234" xlink:href="#DejaVuSans-61"/>
       <use x="121.519531" xlink:href="#DejaVuSans-6e"/>
       <use x="184.898438" xlink:href="#DejaVuSans-6b"/>
       <use x="242.761719" xlink:href="#DejaVuSans-6f"/>
       <use x="303.943359" xlink:href="#DejaVuSans-76"/>
      </g>
      <!-- energy -->
      <g style="fill:#262626;" transform="translate(216.000781 25.99625)scale(0.1 -0.1)">
       <use xlink:href="#DejaVuSans-65"/>
       <use x="61.523438" xlink:href="#DejaVuSans-6e"/>
       <use x="124.902344" xlink:href="#DejaVuSans-65"/>
       <use x="186.425781" xlink:href="#DejaVuSans-72"/>
       <use x="227.523438" xlink:href="#DejaVuSans-67"/>
       <use x="291" xlink:href="#DejaVuSans-79"/>
      </g>
      <!-- (ML-min) -->
      <defs>
       <path d="M 9.8125 72.90625 
L 19.671875 72.90625 
L 19.671875 8.296875 
L 55.171875 8.296875 
L 55.171875 0 
L 9.8125 0 
z
" id="DejaVuSans-4c"/>
       <path d="M 9.421875 54.6875 
L 18.40625 54.6875 
L 18.40625 0 
L 9.421875 0 
z
M 9.421875 75.984375 
L 18.40625 75.984375 
L 18.40625 64.59375 
L 9.421875 64.59375 
z
" id="DejaVuSans-69"/>
      </defs>
      <g style="fill:#262626;" transform="translate(211.278125 37.194063)scale(0.1 -0.1)">
       <use xlink:href="#DejaVuSans-28"/>
       <use x="39.013672" xlink:href="#DejaVuSans-4d"/>
       <use x="125.292969" xlink:href="#DejaVuSans-4c"/>
       <use x="180.990234" xlink:href="#DejaVuSans-2d"/>
       <use x="217.074219" xlink:href="#DejaVuSans-6d"/>
       <use x="314.486328" xlink:href="#DejaVuSans-69"/>
       <use x="342.269531" xlink:href="#DejaVuSans-6e"/>
       <use x="405.648438" xlink:href="#DejaVuSans-29"/>
      </g>
     </g>
    </g>
    <g id="xtick_4">
     <g id="line2d_4">
      <g>
       <use style="fill:#262626;stroke:#262626;stroke-width:0.8;" x="306.050938" xlink:href="#me333a7d1c5" y="46.27375"/>
      </g>
     </g>
     <g id="text_4">
      <!-- Pankov -->
      <g style="fill:#262626;" transform="translate(287.894688 14.798438)scale(0.1 -0.1)">
       <use xlink:href="#DejaVuSans-50"/>
       <use x="60.240234" xlink:href="#DejaVuSans-61"/>
       <use x="121.519531" xlink:href="#DejaVuSans-6e"/>
       <use x="184.898438" xlink:href="#DejaVuSans-6b"/>
       <use x="242.761719" xlink:href="#DejaVuSans-6f"/>
       <use x="303.943359" xlink:href="#DejaVuSans-76"/>
      </g>
      <!-- energy -->
      <g style="fill:#262626;" transform="translate(288.540781 25.99625)scale(0.1 -0.1)">
       <use xlink:href="#DejaVuSans-65"/>
       <use x="61.523438" xlink:href="#DejaVuSans-6e"/>
       <use x="124.902344" xlink:href="#DejaVuSans-65"/>
       <use x="186.425781" xlink:href="#DejaVuSans-72"/>
       <use x="227.523438" xlink:href="#DejaVuSans-67"/>
       <use x="291" xlink:href="#DejaVuSans-79"/>
      </g>
      <!-- (ML-prod) -->
      <defs>
       <path d="M 45.40625 46.390625 
L 45.40625 75.984375 
L 54.390625 75.984375 
L 54.390625 0 
L 45.40625 0 
L 45.40625 8.203125 
Q 42.578125 3.328125 38.25 0.953125 
Q 33.9375 -1.421875 27.875 -1.421875 
Q 17.96875 -1.421875 11.734375 6.484375 
Q 5.515625 14.40625 5.515625 27.296875 
Q 5.515625 40.1875 11.734375 48.09375 
Q 17.96875 56 27.875 56 
Q 33.9375 56 38.25 53.625 
Q 42.578125 51.265625 45.40625 46.390625 
z
M 14.796875 27.296875 
Q 14.796875 17.390625 18.875 11.75 
Q 22.953125 6.109375 30.078125 6.109375 
Q 37.203125 6.109375 41.296875 11.75 
Q 45.40625 17.390625 45.40625 27.296875 
Q 45.40625 37.203125 41.296875 42.84375 
Q 37.203125 48.484375 30.078125 48.484375 
Q 22.953125 48.484375 18.875 42.84375 
Q 14.796875 37.203125 14.796875 27.296875 
z
" id="DejaVuSans-64"/>
      </defs>
      <g style="fill:#262626;" transform="translate(281.784531 37.194063)scale(0.1 -0.1)">
       <use xlink:href="#DejaVuSans-28"/>
       <use x="39.013672" xlink:href="#DejaVuSans-4d"/>
       <use x="125.292969" xlink:href="#DejaVuSans-4c"/>
       <use x="180.990234" xlink:href="#DejaVuSans-2d"/>
       <use x="217.074219" xlink:href="#DejaVuSans-70"/>
       <use x="280.550781" xlink:href="#DejaVuSans-72"/>
       <use x="321.632812" xlink:href="#DejaVuSans-6f"/>
       <use x="382.814453" xlink:href="#DejaVuSans-64"/>
       <use x="446.291016" xlink:href="#DejaVuSans-29"/>
      </g>
     </g>
    </g>
    <g id="xtick_5">
     <g id="line2d_5">
      <g>
       <use style="fill:#262626;stroke:#262626;stroke-width:0.8;" x="378.590938" xlink:href="#me333a7d1c5" y="46.27375"/>
      </g>
     </g>
     <g id="text_5">
      <!-- Pankov score -->
      <g style="fill:#262626;" transform="translate(345.301875 25.854062)scale(0.1 -0.1)">
       <use xlink:href="#DejaVuSans-50"/>
       <use x="60.240234" xlink:href="#DejaVuSans-61"/>
       <use x="121.519531" xlink:href="#DejaVuSans-6e"/>
       <use x="184.898438" xlink:href="#DejaVuSans-6b"/>
       <use x="242.761719" xlink:href="#DejaVuSans-6f"/>
       <use x="303.943359" xlink:href="#DejaVuSans-76"/>
       <use x="363.123047" xlink:href="#DejaVuSans-20"/>
       <use x="394.910156" xlink:href="#DejaVuSans-73"/>
       <use x="447.009766" xlink:href="#DejaVuSans-63"/>
       <use x="501.990234" xlink:href="#DejaVuSans-6f"/>
       <use x="563.171875" xlink:href="#DejaVuSans-72"/>
       <use x="604.253906" xlink:href="#DejaVuSans-65"/>
      </g>
      <!-- (ML-prod,$\beta=1.5$) -->
      <defs>
       <path d="M 11.71875 12.40625 
L 22.015625 12.40625 
L 22.015625 4 
L 14.015625 -11.625 
L 7.71875 -11.625 
L 11.71875 4 
z
" id="DejaVuSans-2c"/>
       <path d="M 13.625 3.375 
L 8.9375 -20.796875 
L -0.09375 -20.796875 
L 14.5 54.34375 
Q 18.84375 76.609375 39.65625 76.609375 
Q 60.75 76.609375 57.171875 57.8125 
Q 54.734375 44.4375 45.21875 39.546875 
Q 58.015625 35.15625 55.515625 22.125 
Q 51.125 -1.078125 27.484375 -1.03125 
Q 17.140625 -0.984375 13.625 3.375 
z
M 15.921875 15.09375 
Q 19.671875 6.59375 29.296875 6.640625 
Q 43.359375 6.640625 46.34375 21.96875 
Q 49.03125 35.75 26.171875 34.671875 
L 27.78125 42.96875 
Q 45.453125 42.671875 48.53125 58.59375 
Q 50.640625 69.34375 39.203125 69.28125 
Q 26.421875 69.28125 23.484375 54.046875 
z
" id="DejaVuSans-Oblique-3b2"/>
       <path d="M 10.6875 12.40625 
L 21 12.40625 
L 21 0 
L 10.6875 0 
z
" id="DejaVuSans-2e"/>
       <path d="M 10.796875 72.90625 
L 49.515625 72.90625 
L 49.515625 64.59375 
L 19.828125 64.59375 
L 19.828125 46.734375 
Q 21.96875 47.46875 24.109375 47.828125 
Q 26.265625 48.1875 28.421875 48.1875 
Q 40.625 48.1875 47.75 41.5 
Q 54.890625 34.8125 54.890625 23.390625 
Q 54.890625 11.625 47.5625 5.09375 
Q 40.234375 -1.421875 26.90625 -1.421875 
Q 22.3125 -1.421875 17.546875 -0.640625 
Q 12.796875 0.140625 7.71875 1.703125 
L 7.71875 11.625 
Q 12.109375 9.234375 16.796875 8.0625 
Q 21.484375 6.890625 26.703125 6.890625 
Q 35.15625 6.890625 40.078125 11.328125 
Q 45.015625 15.765625 45.015625 23.390625 
Q 45.015625 31 40.078125 35.4375 
Q 35.15625 39.890625 26.703125 39.890625 
Q 22.75 39.890625 18.8125 39.015625 
Q 14.890625 38.140625 10.796875 36.28125 
z
" id="DejaVuSans-35"/>
      </defs>
      <g style="fill:#262626;" transform="translate(335.440938 37.17375)scale(0.1 -0.1)">
       <use transform="translate(0 0.390625)" xlink:href="#DejaVuSans-28"/>
       <use transform="translate(39.013672 0.390625)" xlink:href="#DejaVuSans-4d"/>
       <use transform="translate(125.292969 0.390625)" xlink:href="#DejaVuSans-4c"/>
       <use transform="translate(181.005859 0.390625)" xlink:href="#DejaVuSans-2d"/>
       <use transform="translate(217.089844 0.390625)" xlink:href="#DejaVuSans-70"/>
       <use transform="translate(280.566406 0.390625)" xlink:href="#DejaVuSans-72"/>
       <use transform="translate(321.679688 0.390625)" xlink:href="#DejaVuSans-6f"/>
       <use transform="translate(382.861328 0.390625)" xlink:href="#DejaVuSans-64"/>
       <use transform="translate(446.337891 0.390625)" xlink:href="#DejaVuSans-2c"/>
       <use transform="translate(478.125 0.390625)" xlink:href="#DejaVuSans-Oblique-3b2"/>
       <use transform="translate(561.425781 0.390625)" xlink:href="#DejaVuSans-3d"/>
       <use transform="translate(664.697266 0.390625)" xlink:href="#DejaVuSans-31"/>
       <use transform="translate(728.320312 0.390625)" xlink:href="#DejaVuSans-2e"/>
       <use transform="translate(760.107422 0.390625)" xlink:href="#DejaVuSans-35"/>
       <use transform="translate(823.730469 0.390625)" xlink:href="#DejaVuSans-29"/>
      </g>
     </g>
    </g>
   </g>
   <g id="matplotlib.axis_2">
    <g id="ytick_1">
     <g id="line2d_6">
      <path clip-path="url(#p3f778cdb4a)" d="M 52.160938 208.63375 
L 414.860937 208.63375 
" style="fill:none;stroke:#ffffff;stroke-linecap:round;stroke-width:0.8;"/>
     </g>
     <g id="text_6">
      <!-- −1.0 -->
      <defs>
       <path d="M 10.59375 35.5 
L 73.1875 35.5 
L 73.1875 27.203125 
L 10.59375 27.203125 
z
" id="DejaVuSans-2212"/>
       <path d="M 31.78125 66.40625 
Q 24.171875 66.40625 20.328125 58.90625 
Q 16.5 51.421875 16.5 36.375 
Q 16.5 21.390625 20.328125 13.890625 
Q 24.171875 6.390625 31.78125 6.390625 
Q 39.453125 6.390625 43.28125 13.890625 
Q 47.125 21.390625 47.125 36.375 
Q 47.125 51.421875 43.28125 58.90625 
Q 39.453125 66.40625 31.78125 66.40625 
z
M 31.78125 74.21875 
Q 44.046875 74.21875 50.515625 64.515625 
Q 56.984375 54.828125 56.984375 36.375 
Q 56.984375 17.96875 50.515625 8.265625 
Q 44.046875 -1.421875 31.78125 -1.421875 
Q 19.53125 -1.421875 13.0625 8.265625 
Q 6.59375 17.96875 6.59375 36.375 
Q 6.59375 54.828125 13.0625 64.515625 
Q 19.53125 74.21875 31.78125 74.21875 
z
" id="DejaVuSans-30"/>
      </defs>
      <g style="fill:#262626;" transform="translate(20.878125 212.432969)scale(0.1 -0.1)">
       <use xlink:href="#DejaVuSans-2212"/>
       <use x="83.789062" xlink:href="#DejaVuSans-31"/>
       <use x="147.412109" xlink:href="#DejaVuSans-2e"/>
       <use x="179.199219" xlink:href="#DejaVuSans-30"/>
      </g>
     </g>
    </g>
    <g id="ytick_2">
     <g id="line2d_7">
      <path clip-path="url(#p3f778cdb4a)" d="M 52.160938 169.03375 
L 414.860937 169.03375 
" style="fill:none;stroke:#ffffff;stroke-linecap:round;stroke-width:0.8;"/>
     </g>
     <g id="text_7">
      <!-- −0.5 -->
      <g style="fill:#262626;" transform="translate(20.878125 172.832969)scale(0.1 -0.1)">
       <use xlink:href="#DejaVuSans-2212"/>
       <use x="83.789062" xlink:href="#DejaVuSans-30"/>
       <use x="147.412109" xlink:href="#DejaVuSans-2e"/>
       <use x="179.199219" xlink:href="#DejaVuSans-35"/>
      </g>
     </g>
    </g>
    <g id="ytick_3">
     <g id="line2d_8">
      <path clip-path="url(#p3f778cdb4a)" d="M 52.160938 129.43375 
L 414.860937 129.43375 
" style="fill:none;stroke:#ffffff;stroke-linecap:round;stroke-width:0.8;"/>
     </g>
     <g id="text_8">
      <!-- 0.0 -->
      <g style="fill:#262626;" transform="translate(29.257813 133.232969)scale(0.1 -0.1)">
       <use xlink:href="#DejaVuSans-30"/>
       <use x="63.623047" xlink:href="#DejaVuSans-2e"/>
       <use x="95.410156" xlink:href="#DejaVuSans-30"/>
      </g>
     </g>
    </g>
    <g id="ytick_4">
     <g id="line2d_9">
      <path clip-path="url(#p3f778cdb4a)" d="M 52.160938 89.83375 
L 414.860937 89.83375 
" style="fill:none;stroke:#ffffff;stroke-linecap:round;stroke-width:0.8;"/>
     </g>
     <g id="text_9">
      <!-- 0.5 -->
      <g style="fill:#262626;" transform="translate(29.257813 93.632969)scale(0.1 -0.1)">
       <use xlink:href="#DejaVuSans-30"/>
       <use x="63.623047" xlink:href="#DejaVuSans-2e"/>
       <use x="95.410156" xlink:href="#DejaVuSans-35"/>
      </g>
     </g>
    </g>
    <g id="ytick_5">
     <g id="line2d_10">
      <path clip-path="url(#p3f778cdb4a)" d="M 52.160938 50.23375 
L 414.860937 50.23375 
" style="fill:none;stroke:#ffffff;stroke-linecap:round;stroke-width:0.8;"/>
     </g>
     <g id="text_10">
      <!-- 1.0 -->
      <g style="fill:#262626;" transform="translate(29.257813 54.032969)scale(0.1 -0.1)">
       <use xlink:href="#DejaVuSans-31"/>
       <use x="63.623047" xlink:href="#DejaVuSans-2e"/>
       <use x="95.410156" xlink:href="#DejaVuSans-30"/>
      </g>
     </g>
    </g>
    <g id="text_11">
     <!-- Correlations with the reference energies -->
     <defs>
      <path d="M 64.40625 67.28125 
L 64.40625 56.890625 
Q 59.421875 61.53125 53.78125 63.8125 
Q 48.140625 66.109375 41.796875 66.109375 
Q 29.296875 66.109375 22.65625 58.46875 
Q 16.015625 50.828125 16.015625 36.375 
Q 16.015625 21.96875 22.65625 14.328125 
Q 29.296875 6.6875 41.796875 6.6875 
Q 48.140625 6.6875 53.78125 8.984375 
Q 59.421875 11.28125 64.40625 15.921875 
L 64.40625 5.609375 
Q 59.234375 2.09375 53.4375 0.328125 
Q 47.65625 -1.421875 41.21875 -1.421875 
Q 24.65625 -1.421875 15.125 8.703125 
Q 5.609375 18.84375 5.609375 36.375 
Q 5.609375 53.953125 15.125 64.078125 
Q 24.65625 74.21875 41.21875 74.21875 
Q 47.75 74.21875 53.53125 72.484375 
Q 59.328125 70.75 64.40625 67.28125 
z
" id="DejaVuSans-43"/>
      <path d="M 18.3125 70.21875 
L 18.3125 54.6875 
L 36.8125 54.6875 
L 36.8125 47.703125 
L 18.3125 47.703125 
L 18.3125 18.015625 
Q 18.3125 11.328125 20.140625 9.421875 
Q 21.96875 7.515625 27.59375 7.515625 
L 36.8125 7.515625 
L 36.8125 0 
L 27.59375 0 
Q 17.1875 0 13.234375 3.875 
Q 9.28125 7.765625 9.28125 18.015625 
L 9.28125 47.703125 
L 2.6875 47.703125 
L 2.6875 54.6875 
L 9.28125 54.6875 
L 9.28125 70.21875 
z
" id="DejaVuSans-74"/>
      <path d="M 4.203125 54.6875 
L 13.1875 54.6875 
L 24.421875 12.015625 
L 35.59375 54.6875 
L 46.1875 54.6875 
L 57.421875 12.015625 
L 68.609375 54.6875 
L 77.59375 54.6875 
L 63.28125 0 
L 52.6875 0 
L 40.921875 44.828125 
L 29.109375 0 
L 18.5 0 
z
" id="DejaVuSans-77"/>
      <path d="M 54.890625 33.015625 
L 54.890625 0 
L 45.90625 0 
L 45.90625 32.71875 
Q 45.90625 40.484375 42.875 44.328125 
Q 39.84375 48.1875 33.796875 48.1875 
Q 26.515625 48.1875 22.3125 43.546875 
Q 18.109375 38.921875 18.109375 30.90625 
L 18.109375 0 
L 9.078125 0 
L 9.078125 75.984375 
L 18.109375 75.984375 
L 18.109375 46.1875 
Q 21.34375 51.125 25.703125 53.5625 
Q 30.078125 56 35.796875 56 
Q 45.21875 56 50.046875 50.171875 
Q 54.890625 44.34375 54.890625 33.015625 
z
" id="DejaVuSans-68"/>
      <path d="M 37.109375 75.984375 
L 37.109375 68.5 
L 28.515625 68.5 
Q 23.6875 68.5 21.796875 66.546875 
Q 19.921875 64.59375 19.921875 59.515625 
L 19.921875 54.6875 
L 34.71875 54.6875 
L 34.71875 47.703125 
L 19.921875 47.703125 
L 19.921875 0 
L 10.890625 0 
L 10.890625 47.703125 
L 2.296875 47.703125 
L 2.296875 54.6875 
L 10.890625 54.6875 
L 10.890625 58.5 
Q 10.890625 67.625 15.140625 71.796875 
Q 19.390625 75.984375 28.609375 75.984375 
z
" id="DejaVuSans-66"/>
     </defs>
     <g style="fill:#262626;" transform="translate(14.798438 230.686875)rotate(-90)scale(0.1 -0.1)">
      <use xlink:href="#DejaVuSans-43"/>
      <use x="69.824219" xlink:href="#DejaVuSans-6f"/>
      <use x="131.005859" xlink:href="#DejaVuSans-72"/>
      <use x="172.103516" xlink:href="#DejaVuSans-72"/>
      <use x="213.185547" xlink:href="#DejaVuSans-65"/>
      <use x="274.708984" xlink:href="#DejaVuSans-6c"/>
      <use x="302.492188" xlink:href="#DejaVuSans-61"/>
      <use x="363.771484" xlink:href="#DejaVuSans-74"/>
      <use x="402.980469" xlink:href="#DejaVuSans-69"/>
      <use x="430.763672" xlink:href="#DejaVuSans-6f"/>
      <use x="491.945312" xlink:href="#DejaVuSans-6e"/>
      <use x="555.324219" xlink:href="#DejaVuSans-73"/>
      <use x="607.423828" xlink:href="#DejaVuSans-20"/>
      <use x="639.210938" xlink:href="#DejaVuSans-77"/>
      <use x="720.998047" xlink:href="#DejaVuSans-69"/>
      <use x="748.78125" xlink:href="#DejaVuSans-74"/>
      <use x="787.990234" xlink:href="#DejaVuSans-68"/>
      <use x="851.369141" xlink:href="#DejaVuSans-20"/>
      <use x="883.15625" xlink:href="#DejaVuSans-74"/>
      <use x="922.365234" xlink:href="#DejaVuSans-68"/>
      <use x="985.744141" xlink:href="#DejaVuSans-65"/>
      <use x="1047.267578" xlink:href="#DejaVuSans-20"/>
      <use x="1079.054688" xlink:href="#DejaVuSans-72"/>
      <use x="1120.136719" xlink:href="#DejaVuSans-65"/>
      <use x="1181.660156" xlink:href="#DejaVuSans-66"/>
      <use x="1216.865234" xlink:href="#DejaVuSans-65"/>
      <use x="1278.388672" xlink:href="#DejaVuSans-72"/>
      <use x="1319.470703" xlink:href="#DejaVuSans-65"/>
      <use x="1380.994141" xlink:href="#DejaVuSans-6e"/>
      <use x="1444.373047" xlink:href="#DejaVuSans-63"/>
      <use x="1499.353516" xlink:href="#DejaVuSans-65"/>
      <use x="1560.876953" xlink:href="#DejaVuSans-20"/>
      <use x="1592.664062" xlink:href="#DejaVuSans-65"/>
      <use x="1654.1875" xlink:href="#DejaVuSans-6e"/>
      <use x="1717.566406" xlink:href="#DejaVuSans-65"/>
      <use x="1779.089844" xlink:href="#DejaVuSans-72"/>
      <use x="1820.1875" xlink:href="#DejaVuSans-67"/>
      <use x="1883.664062" xlink:href="#DejaVuSans-69"/>
      <use x="1911.447266" xlink:href="#DejaVuSans-65"/>
      <use x="1972.970703" xlink:href="#DejaVuSans-73"/>
     </g>
    </g>
   </g>
   <g id="PolyCollection_1">
    <defs>
     <path d="M 89.10226 -45.093125 
L 87.759615 -45.093125 
L 87.846196 -46.261989 
L 88.044516 -47.430852 
L 88.237195 -48.599716 
L 88.35724 -49.768579 
L 88.409669 -50.937443 
L 88.426281 -52.106306 
L 88.430164 -53.27517 
L 88.43084 -54.444033 
L 88.430928 -55.612897 
L 88.430937 -56.78176 
L 88.430937 -57.950624 
L 88.430934 -59.119487 
L 88.4309 -60.288351 
L 88.430654 -61.457214 
L 88.429321 -62.626078 
L 88.423954 -63.794941 
L 88.408048 -64.963805 
L 88.374022 -66.132668 
L 88.323563 -67.301532 
L 88.277251 -68.470395 
L 88.264045 -69.639259 
L 88.293435 -70.808123 
L 88.344953 -71.976986 
L 88.38987 -73.14585 
L 88.414356 -74.314713 
L 88.417897 -75.483577 
L 88.397776 -76.65244 
L 88.343013 -77.821304 
L 88.249865 -78.990167 
L 88.146676 -80.159031 
L 88.088336 -81.327894 
L 88.104927 -82.496758 
L 88.16496 -83.665621 
L 88.212036 -84.834485 
L 88.226976 -86.003348 
L 88.228648 -87.172212 
L 88.221322 -88.341075 
L 88.169348 -89.509939 
L 88.03073 -90.678802 
L 87.802424 -91.847666 
L 87.531498 -93.016529 
L 87.294093 -94.185393 
L 87.158368 -95.354257 
L 87.145129 -96.52312 
L 87.216771 -97.691984 
L 87.307081 -98.860847 
L 87.350203 -100.029711 
L 87.286313 -101.198574 
L 87.081353 -102.367438 
L 86.765958 -103.536301 
L 86.433668 -104.705165 
L 86.164452 -105.874028 
L 85.936382 -107.042892 
L 85.631748 -108.211755 
L 85.119421 -109.380619 
L 84.274246 -110.549482 
L 82.944502 -111.718346 
L 81.020454 -112.887209 
L 78.553416 -114.056073 
L 75.72911 -115.224936 
L 72.726582 -116.3938 
L 69.665187 -117.562663 
L 66.668606 -118.731527 
L 63.899377 -119.90039 
L 61.551208 -121.069254 
L 59.914778 -122.238118 
L 59.414938 -123.406981 
L 60.391591 -124.575845 
L 62.744866 -125.744708 
L 65.871997 -126.913572 
L 69.063604 -128.082435 
L 71.993932 -129.251299 
L 74.80569 -130.420162 
L 77.729614 -131.589026 
L 80.683351 -132.757889 
L 83.282703 -133.926753 
L 85.188476 -135.095616 
L 86.36428 -136.26448 
L 87.027423 -137.433343 
L 87.430224 -138.602207 
L 87.7042 -139.77107 
L 87.878238 -140.939934 
L 87.982475 -142.108797 
L 88.074153 -143.277661 
L 88.178278 -144.446524 
L 88.26506 -145.615388 
L 88.298662 -146.784252 
L 88.28388 -147.953115 
L 88.261945 -149.121979 
L 88.270931 -150.290842 
L 88.313673 -151.459706 
L 88.363646 -152.628569 
L 88.39363 -153.797433 
L 88.389603 -154.966296 
L 88.345765 -156.13516 
L 88.26578 -157.304023 
L 88.175377 -158.472887 
L 88.12007 -159.64175 
L 88.133627 -160.810614 
L 88.728248 -160.810614 
L 88.728248 -160.810614 
L 88.741805 -159.64175 
L 88.686498 -158.472887 
L 88.596095 -157.304023 
L 88.51611 -156.13516 
L 88.472272 -154.966296 
L 88.468245 -153.797433 
L 88.498229 -152.628569 
L 88.548202 -151.459706 
L 88.590944 -150.290842 
L 88.59993 -149.121979 
L 88.577995 -147.953115 
L 88.563213 -146.784252 
L 88.596815 -145.615388 
L 88.683597 -144.446524 
L 88.787722 -143.277661 
L 88.8794 -142.108797 
L 88.983637 -140.939934 
L 89.157675 -139.77107 
L 89.431651 -138.602207 
L 89.834452 -137.433343 
L 90.497595 -136.26448 
L 91.673399 -135.095616 
L 93.579172 -133.926753 
L 96.178524 -132.757889 
L 99.132261 -131.589026 
L 102.056185 -130.420162 
L 104.867943 -129.251299 
L 107.798271 -128.082435 
L 110.989878 -126.913572 
L 114.117009 -125.744708 
L 116.470284 -124.575845 
L 117.446938 -123.406981 
L 116.947097 -122.238118 
L 115.310667 -121.069254 
L 112.962498 -119.90039 
L 110.193269 -118.731527 
L 107.196688 -117.562663 
L 104.135293 -116.3938 
L 101.132765 -115.224936 
L 98.308459 -114.056073 
L 95.841421 -112.887209 
L 93.917373 -111.718346 
L 92.587629 -110.549482 
L 91.742454 -109.380619 
L 91.230127 -108.211755 
L 90.925493 -107.042892 
L 90.697423 -105.874028 
L 90.428207 -104.705165 
L 90.095917 -103.536301 
L 89.780522 -102.367438 
L 89.575562 -101.198574 
L 89.511672 -100.029711 
L 89.554794 -98.860847 
L 89.645104 -97.691984 
L 89.716746 -96.52312 
L 89.703507 -95.354257 
L 89.567782 -94.185393 
L 89.330377 -93.016529 
L 89.059451 -91.847666 
L 88.831145 -90.678802 
L 88.692527 -89.509939 
L 88.640553 -88.341075 
L 88.633227 -87.172212 
L 88.634899 -86.003348 
L 88.649839 -84.834485 
L 88.696915 -83.665621 
L 88.756948 -82.496758 
L 88.773539 -81.327894 
L 88.715199 -80.159031 
L 88.61201 -78.990167 
L 88.518862 -77.821304 
L 88.464099 -76.65244 
L 88.443978 -75.483577 
L 88.447519 -74.314713 
L 88.472005 -73.14585 
L 88.516922 -71.976986 
L 88.56844 -70.808123 
L 88.59783 -69.639259 
L 88.584624 -68.470395 
L 88.538312 -67.301532 
L 88.487853 -66.132668 
L 88.453827 -64.963805 
L 88.437921 -63.794941 
L 88.432554 -62.626078 
L 88.431221 -61.457214 
L 88.430975 -60.288351 
L 88.430941 -59.119487 
L 88.430938 -57.950624 
L 88.430938 -56.78176 
L 88.430947 -55.612897 
L 88.431035 -54.444033 
L 88.431711 -53.27517 
L 88.435594 -52.106306 
L 88.452206 -50.937443 
L 88.504635 -49.768579 
L 88.62468 -48.599716 
L 88.817359 -47.430852 
L 89.015679 -46.261989 
L 89.10226 -45.093125 
z
" id="m7f98468940" style="stroke:#363636;stroke-width:1.5;"/>
    </defs>
    <g clip-path="url(#p3f778cdb4a)">
     <use style="fill:#68afd7;stroke:#363636;stroke-width:1.5;" x="0" xlink:href="#m7f98468940" y="237.886875"/>
    </g>
   </g>
   <g id="PolyCollection_2">
    <defs>
     <path d="M 161.402823 -100.236214 
L 160.539052 -100.236214 
L 160.466958 -101.119213 
L 160.412692 -102.002212 
L 160.376383 -102.885211 
L 160.350424 -103.76821 
L 160.317891 -104.651209 
L 160.253163 -105.534209 
L 160.126347 -106.417208 
L 159.910479 -107.300207 
L 159.58731 -108.183206 
L 159.14725 -109.066205 
L 158.582936 -109.949204 
L 157.881419 -110.832203 
L 157.022373 -111.715202 
L 155.986341 -112.598201 
L 154.769396 -113.4812 
L 153.393932 -114.3642 
L 151.905374 -115.247199 
L 150.353046 -116.130198 
L 148.765635 -117.013197 
L 147.13877 -117.896196 
L 145.447235 -118.779195 
L 143.678813 -119.662194 
L 141.870986 -120.545193 
L 140.127375 -121.428192 
L 138.60194 -122.311191 
L 137.458087 -123.194191 
L 136.823922 -124.07719 
L 136.764786 -124.960189 
L 137.280919 -125.843188 
L 138.321763 -126.726187 
L 139.801168 -127.609186 
L 141.604204 -128.492185 
L 143.58989 -129.375184 
L 145.60187 -130.258183 
L 147.493724 -131.141182 
L 149.16168 -132.024182 
L 150.567575 -132.907181 
L 151.737718 -133.79018 
L 152.737032 -134.673179 
L 153.632015 -135.556178 
L 154.461051 -136.439177 
L 155.224279 -137.322176 
L 155.893716 -138.205175 
L 156.434967 -139.088174 
L 156.828628 -139.971174 
L 157.082056 -140.854173 
L 157.228295 -141.737172 
L 157.315608 -142.620171 
L 157.394295 -143.50317 
L 157.505863 -144.386169 
L 157.675554 -145.269168 
L 157.907607 -146.152167 
L 158.184489 -147.035166 
L 158.47299 -147.918165 
L 158.737459 -148.801165 
L 158.954978 -149.684164 
L 159.124246 -150.567163 
L 159.262799 -151.450162 
L 159.394121 -152.333161 
L 159.532267 -153.21616 
L 159.672967 -154.099159 
L 159.796256 -154.982158 
L 159.878681 -155.865157 
L 159.907544 -156.748156 
L 159.888999 -157.631156 
L 159.846331 -158.514155 
L 159.810696 -159.397154 
L 159.809667 -160.280153 
L 159.858267 -161.163152 
L 159.954731 -162.046151 
L 160.081576 -162.92915 
L 160.211507 -163.812149 
L 160.316525 -164.695148 
L 160.377223 -165.578147 
L 160.388818 -166.461147 
L 160.361775 -167.344146 
L 160.317148 -168.227145 
L 160.278631 -169.110144 
L 160.264243 -169.993143 
L 160.280527 -170.876142 
L 160.321331 -171.759141 
L 160.371552 -172.64214 
L 160.414108 -173.525139 
L 160.436975 -174.408138 
L 160.437353 -175.291138 
L 160.421683 -176.174137 
L 160.402248 -177.057136 
L 160.39232 -177.940135 
L 160.401701 -178.823134 
L 160.433603 -179.706133 
L 160.482991 -180.589132 
L 160.53658 -181.472131 
L 160.575317 -182.35513 
L 160.580159 -183.238129 
L 160.540439 -184.121129 
L 160.461545 -185.004128 
L 160.366994 -185.887127 
L 160.291618 -186.770126 
L 160.267502 -187.653125 
L 161.674373 -187.653125 
L 161.674373 -187.653125 
L 161.650257 -186.770126 
L 161.574881 -185.887127 
L 161.48033 -185.004128 
L 161.401436 -184.121129 
L 161.361716 -183.238129 
L 161.366558 -182.35513 
L 161.405295 -181.472131 
L 161.458884 -180.589132 
L 161.508272 -179.706133 
L 161.540174 -178.823134 
L 161.549555 -177.940135 
L 161.539627 -177.057136 
L 161.520192 -176.174137 
L 161.504522 -175.291138 
L 161.5049 -174.408138 
L 161.527767 -173.525139 
L 161.570323 -172.64214 
L 161.620544 -171.759141 
L 161.661348 -170.876142 
L 161.677632 -169.993143 
L 161.663244 -169.110144 
L 161.624727 -168.227145 
L 161.5801 -167.344146 
L 161.553057 -166.461147 
L 161.564652 -165.578147 
L 161.62535 -164.695148 
L 161.730368 -163.812149 
L 161.860299 -162.92915 
L 161.987144 -162.046151 
L 162.083608 -161.163152 
L 162.132208 -160.280153 
L 162.131179 -159.397154 
L 162.095544 -158.514155 
L 162.052876 -157.631156 
L 162.034331 -156.748156 
L 162.063194 -155.865157 
L 162.145619 -154.982158 
L 162.268908 -154.099159 
L 162.409608 -153.21616 
L 162.547754 -152.333161 
L 162.679076 -151.450162 
L 162.817629 -150.567163 
L 162.986897 -149.684164 
L 163.204416 -148.801165 
L 163.468885 -147.918165 
L 163.757386 -147.035166 
L 164.034268 -146.152167 
L 164.266321 -145.269168 
L 164.436012 -144.386169 
L 164.54758 -143.50317 
L 164.626267 -142.620171 
L 164.71358 -141.737172 
L 164.859819 -140.854173 
L 165.113247 -139.971174 
L 165.506908 -139.088174 
L 166.048159 -138.205175 
L 166.717596 -137.322176 
L 167.480824 -136.439177 
L 168.30986 -135.556178 
L 169.204843 -134.673179 
L 170.204157 -133.79018 
L 171.3743 -132.907181 
L 172.780195 -132.024182 
L 174.448151 -131.141182 
L 176.340005 -130.258183 
L 178.351985 -129.375184 
L 180.337671 -128.492185 
L 182.140707 -127.609186 
L 183.620112 -126.726187 
L 184.660956 -125.843188 
L 185.177089 -124.960189 
L 185.117953 -124.07719 
L 184.483788 -123.194191 
L 183.339935 -122.311191 
L 181.8145 -121.428192 
L 180.070889 -120.545193 
L 178.263062 -119.662194 
L 176.49464 -118.779195 
L 174.803105 -117.896196 
L 173.17624 -117.013197 
L 171.588829 -116.130198 
L 170.036501 -115.247199 
L 168.547943 -114.3642 
L 167.172479 -113.4812 
L 165.955534 -112.598201 
L 164.919502 -111.715202 
L 164.060456 -110.832203 
L 163.358939 -109.949204 
L 162.794625 -109.066205 
L 162.354565 -108.183206 
L 162.031396 -107.300207 
L 161.815528 -106.417208 
L 161.688712 -105.534209 
L 161.623984 -104.651209 
L 161.591451 -103.76821 
L 161.565492 -102.885211 
L 161.529183 -102.002212 
L 161.474917 -101.119213 
L 161.402823 -100.236214 
z
" id="md4c359f0c2" style="stroke:#363636;stroke-width:1.5;"/>
    </defs>
    <g clip-path="url(#p3f778cdb4a)">
     <use style="fill:#176d9c;stroke:#363636;stroke-width:1.5;" x="0" xlink:href="#md4c359f0c2" y="237.886875"/>
    </g>
   </g>
   <g id="PolyCollection_3">
    <defs>
     <path d="M 233.669849 -108.453125 
L 233.352026 -108.453125 
L 233.360946 -109.251617 
L 233.384814 -110.050108 
L 233.416456 -110.8486 
L 233.447883 -111.647091 
L 233.473448 -112.445583 
L 233.49108 -113.244074 
L 233.501567 -114.042566 
L 233.506998 -114.841058 
L 233.509459 -115.639549 
L 233.510431 -116.438041 
L 233.510732 -117.236532 
L 233.510685 -118.035024 
L 233.510233 -118.833515 
L 233.508923 -119.632007 
L 233.505748 -120.430498 
L 233.49902 -121.22899 
L 233.486554 -122.027482 
L 233.46649 -122.825973 
L 233.438757 -123.624465 
L 233.406503 -124.422956 
L 233.376295 -125.221448 
L 233.356177 -126.019939 
L 233.352084 -126.818431 
L 233.364531 -127.616923 
L 233.387643 -128.415414 
L 233.41101 -129.213906 
L 233.42307 -130.012397 
L 233.414275 -130.810889 
L 233.379332 -131.60938 
L 233.318883 -132.407872 
L 233.240686 -133.206363 
L 233.15924 -134.004855 
L 233.092367 -134.803347 
L 233.054547 -135.601838 
L 233.049319 -136.40033 
L 233.064722 -137.198821 
L 233.075205 -137.997313 
L 233.050474 -138.795804 
L 232.968122 -139.594296 
L 232.824361 -140.392788 
L 232.637002 -141.191279 
L 232.437464 -141.989771 
L 232.253754 -142.788262 
L 232.092188 -143.586754 
L 231.928479 -144.385245 
L 231.715287 -145.183737 
L 231.404097 -145.982229 
L 230.970066 -146.78072 
L 230.42615 -147.579212 
L 229.819263 -148.377703 
L 229.211308 -149.176195 
L 228.654206 -149.974686 
L 228.167942 -150.773178 
L 227.728075 -151.571669 
L 227.268033 -152.370161 
L 226.700077 -153.168653 
L 225.95258 -153.967144 
L 225.010438 -154.765636 
L 223.937907 -155.564127 
L 222.867503 -156.362619 
L 221.955267 -157.16111 
L 221.321619 -157.959602 
L 221.005434 -158.758094 
L 220.95119 -159.556585 
L 221.031701 -160.355077 
L 221.094039 -161.153568 
L 221.010662 -161.95206 
L 220.719592 -162.750551 
L 220.241961 -163.549043 
L 219.671321 -164.347534 
L 219.137956 -165.146026 
L 218.760517 -165.944518 
L 218.60213 -166.743009 
L 218.647598 -167.541501 
L 218.813869 -168.339992 
L 218.995671 -169.138484 
L 219.12922 -169.936975 
L 219.237746 -170.735467 
L 219.423312 -171.533959 
L 219.800919 -172.33245 
L 220.414175 -173.130942 
L 221.190052 -173.929433 
L 221.964267 -174.727925 
L 222.559539 -175.526416 
L 222.866672 -176.324908 
L 222.884627 -177.123399 
L 222.707427 -177.921891 
L 222.475152 -178.720383 
L 222.317524 -179.518874 
L 222.31302 -180.317366 
L 222.473694 -181.115857 
L 222.754323 -181.914349 
L 223.079313 -182.71284 
L 223.380964 -183.511332 
L 223.64082 -184.309824 
L 223.917654 -185.108315 
L 224.339279 -185.906807 
L 225.047184 -186.705298 
L 226.115069 -187.50379 
L 240.906806 -187.50379 
L 240.906806 -187.50379 
L 241.974691 -186.705298 
L 242.682596 -185.906807 
L 243.104221 -185.108315 
L 243.381055 -184.309824 
L 243.640911 -183.511332 
L 243.942562 -182.71284 
L 244.267552 -181.914349 
L 244.548181 -181.115857 
L 244.708855 -180.317366 
L 244.704351 -179.518874 
L 244.546723 -178.720383 
L 244.314448 -177.921891 
L 244.137248 -177.123399 
L 244.155203 -176.324908 
L 244.462336 -175.526416 
L 245.057608 -174.727925 
L 245.831823 -173.929433 
L 246.6077 -173.130942 
L 247.220956 -172.33245 
L 247.598563 -171.533959 
L 247.784129 -170.735467 
L 247.892655 -169.936975 
L 248.026204 -169.138484 
L 248.208006 -168.339992 
L 248.374277 -167.541501 
L 248.419745 -166.743009 
L 248.261358 -165.944518 
L 247.883919 -165.146026 
L 247.350554 -164.347534 
L 246.779914 -163.549043 
L 246.302283 -162.750551 
L 246.011213 -161.95206 
L 245.927836 -161.153568 
L 245.990174 -160.355077 
L 246.070685 -159.556585 
L 246.016441 -158.758094 
L 245.700256 -157.959602 
L 245.066608 -157.16111 
L 244.154372 -156.362619 
L 243.083968 -155.564127 
L 242.011437 -154.765636 
L 241.069295 -153.967144 
L 240.321798 -153.168653 
L 239.753842 -152.370161 
L 239.2938 -151.571669 
L 238.853933 -150.773178 
L 238.367669 -149.974686 
L 237.810567 -149.176195 
L 237.202612 -148.377703 
L 236.595725 -147.579212 
L 236.051809 -146.78072 
L 235.617778 -145.982229 
L 235.306588 -145.183737 
L 235.093396 -144.385245 
L 234.929687 -143.586754 
L 234.768121 -142.788262 
L 234.584411 -141.989771 
L 234.384873 -141.191279 
L 234.197514 -140.392788 
L 234.053753 -139.594296 
L 233.971401 -138.795804 
L 233.94667 -137.997313 
L 233.957153 -137.198821 
L 233.972556 -136.40033 
L 233.967328 -135.601838 
L 233.929508 -134.803347 
L 233.862635 -134.004855 
L 233.781189 -133.206363 
L 233.702992 -132.407872 
L 233.642543 -131.60938 
L 233.6076 -130.810889 
L 233.598805 -130.012397 
L 233.610865 -129.213906 
L 233.634232 -128.415414 
L 233.657344 -127.616923 
L 233.669791 -126.818431 
L 233.665698 -126.019939 
L 233.64558 -125.221448 
L 233.615372 -124.422956 
L 233.583118 -123.624465 
L 233.555385 -122.825973 
L 233.535321 -122.027482 
L 233.522855 -121.22899 
L 233.516127 -120.430498 
L 233.512952 -119.632007 
L 233.511642 -118.833515 
L 233.51119 -118.035024 
L 233.511143 -117.236532 
L 233.511444 -116.438041 
L 233.512416 -115.639549 
L 233.514877 -114.841058 
L 233.520308 -114.042566 
L 233.530795 -113.244074 
L 233.548427 -112.445583 
L 233.573992 -111.647091 
L 233.605419 -110.8486 
L 233.637061 -110.050108 
L 233.660929 -109.251617 
L 233.669849 -108.453125 
z
" id="m0d67199c2d" style="stroke:#363636;stroke-width:1.5;"/>
    </defs>
    <g clip-path="url(#p3f778cdb4a)">
     <use style="fill:#ba611b;stroke:#363636;stroke-width:1.5;" x="0" xlink:href="#m0d67199c2d" y="237.886875"/>
    </g>
   </g>
   <g id="PolyCollection_4">
    <defs>
     <path d="M 306.178699 -108.453125 
L 305.923176 -108.453125 
L 305.927857 -109.251617 
L 305.940897 -110.050108 
L 305.959623 -110.8486 
L 305.980581 -111.647091 
L 306.000533 -112.445583 
L 306.017173 -113.244074 
L 306.029333 -114.042566 
L 306.036735 -114.841058 
L 306.03949 -115.639549 
L 306.037618 -116.438041 
L 306.030776 -117.236532 
L 306.018264 -118.035024 
L 305.999278 -118.833515 
L 305.973306 -119.632007 
L 305.940482 -120.430498 
L 305.901757 -121.22899 
L 305.858839 -122.027482 
L 305.813891 -122.825973 
L 305.76908 -123.624465 
L 305.725946 -124.422956 
L 305.684562 -125.221448 
L 305.642535 -126.019939 
L 305.594146 -126.818431 
L 305.530195 -127.616923 
L 305.438986 -128.415414 
L 305.308485 -129.213906 
L 305.129004 -130.012397 
L 304.895449 -130.810889 
L 304.608427 -131.60938 
L 304.274172 -132.407872 
L 303.903853 -133.206363 
L 303.512871 -134.004855 
L 303.120199 -134.803347 
L 302.747094 -135.601838 
L 302.414377 -136.40033 
L 302.138054 -137.198821 
L 301.924217 -137.997313 
L 301.764982 -138.795804 
L 301.637369 -139.594296 
L 301.506208 -140.392788 
L 301.330913 -141.191279 
L 301.074602 -141.989771 
L 300.712989 -142.788262 
L 300.240143 -143.586754 
L 299.668931 -144.385245 
L 299.025958 -145.183737 
L 298.343321 -145.982229 
L 297.651193 -146.78072 
L 296.974751 -147.579212 
L 296.336307 -148.377703 
L 295.760126 -149.176195 
L 295.275617 -149.974686 
L 294.915559 -150.773178 
L 294.708969 -151.571669 
L 294.671259 -152.370161 
L 294.795668 -153.168653 
L 295.049412 -153.967144 
L 295.376501 -154.765636 
L 295.707415 -155.564127 
L 295.973953 -156.362619 
L 296.125475 -157.16111 
L 296.141172 -157.959602 
L 296.033428 -158.758094 
L 295.840591 -159.556585 
L 295.612353 -160.355077 
L 295.394553 -161.153568 
L 295.219993 -161.95206 
L 295.107675 -162.750551 
L 295.067533 -163.549043 
L 295.10475 -164.347534 
L 295.219185 -165.146026 
L 295.400017 -165.944518 
L 295.620435 -166.743009 
L 295.838585 -167.541501 
L 296.008003 -168.339992 
L 296.094898 -169.138484 
L 296.094517 -169.936975 
L 296.037789 -170.735467 
L 295.983542 -171.533959 
L 295.998737 -172.33245 
L 296.135215 -173.130942 
L 296.412911 -173.929433 
L 296.815857 -174.727925 
L 297.300906 -175.526416 
L 297.813718 -176.324908 
L 298.304561 -177.123399 
L 298.738187 -177.921891 
L 299.095823 -178.720383 
L 299.371088 -179.518874 
L 299.563889 -180.317366 
L 299.676465 -181.115857 
L 299.714077 -181.914349 
L 299.690158 -182.71284 
L 299.633091 -183.511332 
L 299.590022 -184.309824 
L 299.623358 -185.108315 
L 299.798166 -185.906807 
L 300.163185 -186.705298 
L 300.732496 -187.50379 
L 311.369379 -187.50379 
L 311.369379 -187.50379 
L 311.93869 -186.705298 
L 312.303709 -185.906807 
L 312.478517 -185.108315 
L 312.511853 -184.309824 
L 312.468784 -183.511332 
L 312.411717 -182.71284 
L 312.387798 -181.914349 
L 312.42541 -181.115857 
L 312.537986 -180.317366 
L 312.730787 -179.518874 
L 313.006052 -178.720383 
L 313.363688 -177.921891 
L 313.797314 -177.123399 
L 314.288157 -176.324908 
L 314.800969 -175.526416 
L 315.286018 -174.727925 
L 315.688964 -173.929433 
L 315.96666 -173.130942 
L 316.103138 -172.33245 
L 316.118333 -171.533959 
L 316.064086 -170.735467 
L 316.007358 -169.936975 
L 316.006977 -169.138484 
L 316.093872 -168.339992 
L 316.26329 -167.541501 
L 316.48144 -166.743009 
L 316.701858 -165.944518 
L 316.88269 -165.146026 
L 316.997125 -164.347534 
L 317.034342 -163.549043 
L 316.9942 -162.750551 
L 316.881882 -161.95206 
L 316.707322 -161.153568 
L 316.489522 -160.355077 
L 316.261284 -159.556585 
L 316.068447 -158.758094 
L 315.960703 -157.959602 
L 315.9764 -157.16111 
L 316.127922 -156.362619 
L 316.39446 -155.564127 
L 316.725374 -154.765636 
L 317.052463 -153.967144 
L 317.306207 -153.168653 
L 317.430616 -152.370161 
L 317.392906 -151.571669 
L 317.186316 -150.773178 
L 316.826258 -149.974686 
L 316.341749 -149.176195 
L 315.765568 -148.377703 
L 315.127124 -147.579212 
L 314.450682 -146.78072 
L 313.758554 -145.982229 
L 313.075917 -145.183737 
L 312.432944 -144.385245 
L 311.861732 -143.586754 
L 311.388886 -142.788262 
L 311.027273 -141.989771 
L 310.770962 -141.191279 
L 310.595667 -140.392788 
L 310.464506 -139.594296 
L 310.336893 -138.795804 
L 310.177658 -137.997313 
L 309.963821 -137.198821 
L 309.687498 -136.40033 
L 309.354781 -135.601838 
L 308.981676 -134.803347 
L 308.589004 -134.004855 
L 308.198022 -133.206363 
L 307.827703 -132.407872 
L 307.493448 -131.60938 
L 307.206426 -130.810889 
L 306.972871 -130.012397 
L 306.79339 -129.213906 
L 306.662889 -128.415414 
L 306.57168 -127.616923 
L 306.507729 -126.818431 
L 306.45934 -126.019939 
L 306.417313 -125.221448 
L 306.375929 -124.422956 
L 306.332795 -123.624465 
L 306.287984 -122.825973 
L 306.243036 -122.027482 
L 306.200118 -121.22899 
L 306.161393 -120.430498 
L 306.128569 -119.632007 
L 306.102597 -118.833515 
L 306.083611 -118.035024 
L 306.071099 -117.236532 
L 306.064257 -116.438041 
L 306.062385 -115.639549 
L 306.06514 -114.841058 
L 306.072542 -114.042566 
L 306.084702 -113.244074 
L 306.101342 -112.445583 
L 306.121294 -111.647091 
L 306.142252 -110.8486 
L 306.160978 -110.050108 
L 306.174018 -109.251617 
L 306.178699 -108.453125 
z
" id="m1c4be9dd8a" style="stroke:#363636;stroke-width:1.5;"/>
    </defs>
    <g clip-path="url(#p3f778cdb4a)">
     <use style="fill:#c38820;stroke:#363636;stroke-width:1.5;" x="0" xlink:href="#m1c4be9dd8a" y="237.886875"/>
    </g>
   </g>
   <g id="PolyCollection_5">
    <defs>
     <path d="M 378.730582 -104.259317 
L 378.451293 -104.259317 
L 378.454342 -105.101679 
L 378.465196 -105.94404 
L 378.477434 -106.786402 
L 378.483509 -107.628764 
L 378.477115 -108.471125 
L 378.454666 -109.313487 
L 378.415305 -110.155849 
L 378.359517 -110.998211 
L 378.287105 -111.840572 
L 378.195535 -112.682934 
L 378.079569 -113.525296 
L 377.932657 -114.367657 
L 377.749882 -115.210019 
L 377.531483 -116.052381 
L 377.28533 -116.894742 
L 377.026652 -117.737104 
L 376.774168 -118.579466 
L 376.543312 -119.421828 
L 376.338713 -120.264189 
L 376.148539 -121.106551 
L 375.94297 -121.948913 
L 375.678221 -122.791274 
L 375.306412 -123.633636 
L 374.789742 -124.475998 
L 374.114943 -125.318359 
L 373.302263 -126.160721 
L 372.403925 -127.003083 
L 371.490979 -127.845444 
L 370.633029 -128.687806 
L 369.879317 -129.530168 
L 369.248945 -130.37253 
L 368.73268 -131.214891 
L 368.302096 -132.057253 
L 367.918924 -132.899615 
L 367.54058 -133.741976 
L 367.123898 -134.584338 
L 366.631975 -135.4267 
L 366.045486 -136.269061 
L 365.373186 -137.111423 
L 364.653622 -137.953785 
L 363.944712 -138.796147 
L 363.306233 -139.638508 
L 362.785023 -140.48087 
L 362.410117 -141.323232 
L 362.197524 -142.165593 
L 362.158035 -143.007955 
L 362.30058 -143.850317 
L 362.628271 -144.692678 
L 363.130729 -145.53504 
L 363.779948 -146.377402 
L 364.535051 -147.219764 
L 365.354751 -148.062125 
L 366.209736 -148.904487 
L 367.085861 -149.746849 
L 367.974992 -150.58921 
L 368.859783 -151.431572 
L 369.70429 -152.273934 
L 370.459204 -153.116295 
L 371.08044 -153.958657 
L 371.550182 -154.801019 
L 371.887363 -155.64338 
L 372.141005 -156.485742 
L 372.370055 -157.328104 
L 372.620616 -158.170466 
L 372.911868 -159.012827 
L 373.236151 -159.855189 
L 373.570668 -160.697551 
L 373.892697 -161.539912 
L 374.189789 -162.382274 
L 374.460984 -163.224636 
L 374.711076 -164.066997 
L 374.943655 -164.909359 
L 375.157797 -165.751721 
L 375.349545 -166.594083 
L 375.515957 -167.436444 
L 375.65865 -168.278806 
L 375.784953 -169.121168 
L 375.906241 -169.963529 
L 376.034059 -170.805891 
L 376.175483 -171.648253 
L 376.329975 -172.490614 
L 376.489679 -173.332976 
L 376.643325 -174.175338 
L 376.781702 -175.0177 
L 376.901832 -175.860061 
L 377.008094 -176.702423 
L 377.110294 -177.544785 
L 377.219621 -178.387146 
L 377.343605 -179.229508 
L 377.48157 -180.07187 
L 377.622708 -180.914231 
L 377.748692 -181.756593 
L 377.840836 -182.598955 
L 377.888978 -183.441317 
L 377.897593 -184.283678 
L 377.88553 -185.12604 
L 377.878995 -185.968402 
L 377.901032 -186.810763 
L 377.962671 -187.653125 
L 379.219204 -187.653125 
L 379.219204 -187.653125 
L 379.280843 -186.810763 
L 379.30288 -185.968402 
L 379.296345 -185.12604 
L 379.284282 -184.283678 
L 379.292897 -183.441317 
L 379.341039 -182.598955 
L 379.433183 -181.756593 
L 379.559167 -180.914231 
L 379.700305 -180.07187 
L 379.83827 -179.229508 
L 379.962254 -178.387146 
L 380.071581 -177.544785 
L 380.173781 -176.702423 
L 380.280043 -175.860061 
L 380.400173 -175.0177 
L 380.53855 -174.175338 
L 380.692196 -173.332976 
L 380.8519 -172.490614 
L 381.006392 -171.648253 
L 381.147816 -170.805891 
L 381.275634 -169.963529 
L 381.396922 -169.121168 
L 381.523225 -168.278806 
L 381.665918 -167.436444 
L 381.83233 -166.594083 
L 382.024078 -165.751721 
L 382.23822 -164.909359 
L 382.470799 -164.066997 
L 382.720891 -163.224636 
L 382.992086 -162.382274 
L 383.289178 -161.539912 
L 383.611207 -160.697551 
L 383.945724 -159.855189 
L 384.270007 -159.012827 
L 384.561259 -158.170466 
L 384.81182 -157.328104 
L 385.04087 -156.485742 
L 385.294512 -155.64338 
L 385.631693 -154.801019 
L 386.101435 -153.958657 
L 386.722671 -153.116295 
L 387.477585 -152.273934 
L 388.322092 -151.431572 
L 389.206883 -150.58921 
L 390.096014 -149.746849 
L 390.972139 -148.904487 
L 391.827124 -148.062125 
L 392.646824 -147.219764 
L 393.401927 -146.377402 
L 394.051146 -145.53504 
L 394.553604 -144.692678 
L 394.881295 -143.850317 
L 395.02384 -143.007955 
L 394.984351 -142.165593 
L 394.771758 -141.323232 
L 394.396852 -140.48087 
L 393.875642 -139.638508 
L 393.237163 -138.796147 
L 392.528253 -137.953785 
L 391.808689 -137.111423 
L 391.136389 -136.269061 
L 390.5499 -135.4267 
L 390.057977 -134.584338 
L 389.641295 -133.741976 
L 389.262951 -132.899615 
L 388.879779 -132.057253 
L 388.449195 -131.214891 
L 387.93293 -130.37253 
L 387.302558 -129.530168 
L 386.548846 -128.687806 
L 385.690896 -127.845444 
L 384.77795 -127.003083 
L 383.879612 -126.160721 
L 383.066932 -125.318359 
L 382.392133 -124.475998 
L 381.875463 -123.633636 
L 381.503654 -122.791274 
L 381.238905 -121.948913 
L 381.033336 -121.106551 
L 380.843162 -120.264189 
L 380.638563 -119.421828 
L 380.407707 -118.579466 
L 380.155223 -117.737104 
L 379.896545 -116.894742 
L 379.650392 -116.052381 
L 379.431993 -115.210019 
L 379.249218 -114.367657 
L 379.102306 -113.525296 
L 378.98634 -112.682934 
L 378.89477 -111.840572 
L 378.822358 -110.998211 
L 378.76657 -110.155849 
L 378.727209 -109.313487 
L 378.70476 -108.471125 
L 378.698366 -107.628764 
L 378.704441 -106.786402 
L 378.716679 -105.94404 
L 378.727533 -105.101679 
L 378.730582 -104.259317 
z
" id="m2ef886b6cb" style="stroke:#363636;stroke-width:1.5;"/>
    </defs>
    <g clip-path="url(#p3f778cdb4a)">
     <use style="fill:#bd926e;stroke:#363636;stroke-width:1.5;" x="0" xlink:href="#m2ef886b6cb" y="237.886875"/>
    </g>
   </g>
   <g id="line2d_11">
    <path clip-path="url(#p3f778cdb4a)" d="M 88.430938 131.868228 
L 88.430938 99.5348 
" style="fill:none;stroke:#363636;stroke-linecap:round;stroke-width:1.5;"/>
   </g>
   <g id="line2d_12">
    <path clip-path="url(#p3f778cdb4a)" d="M 88.430938 119.643427 
L 88.430938 111.456796 
" style="fill:none;stroke:#363636;stroke-linecap:round;stroke-width:4.5;"/>
   </g>
   <g id="line2d_13">
    <path clip-path="url(#p3f778cdb4a)" d="M 160.970938 128.918742 
L 160.970938 90.234396 
" style="fill:none;stroke:#363636;stroke-linecap:round;stroke-width:1.5;"/>
   </g>
   <g id="line2d_14">
    <path clip-path="url(#p3f778cdb4a)" d="M 160.970938 116.652004 
L 160.970938 106.057591 
" style="fill:none;stroke:#363636;stroke-linecap:round;stroke-width:4.5;"/>
   </g>
   <g id="line2d_15">
    <path clip-path="url(#p3f778cdb4a)" d="M 233.510938 103.311491 
L 233.510938 50.383085 
" style="fill:none;stroke:#363636;stroke-linecap:round;stroke-width:1.5;"/>
   </g>
   <g id="line2d_16">
    <path clip-path="url(#p3f778cdb4a)" d="M 233.510938 78.092814 
L 233.510938 59.880345 
" style="fill:none;stroke:#363636;stroke-linecap:round;stroke-width:4.5;"/>
   </g>
   <g id="line2d_17">
    <path clip-path="url(#p3f778cdb4a)" d="M 306.050938 114.819997 
L 306.050938 50.383085 
" style="fill:none;stroke:#363636;stroke-linecap:round;stroke-width:1.5;"/>
   </g>
   <g id="line2d_18">
    <path clip-path="url(#p3f778cdb4a)" d="M 306.050938 86.749942 
L 306.050938 65.002768 
" style="fill:none;stroke:#363636;stroke-linecap:round;stroke-width:4.5;"/>
   </g>
   <g id="line2d_19">
    <path clip-path="url(#p3f778cdb4a)" d="M 378.590938 125.907479 
L 378.590938 64.305649 
" style="fill:none;stroke:#363636;stroke-linecap:round;stroke-width:1.5;"/>
   </g>
   <g id="line2d_20">
    <path clip-path="url(#p3f778cdb4a)" d="M 378.590938 102.326221 
L 378.590938 86.530058 
" style="fill:none;stroke:#363636;stroke-linecap:round;stroke-width:4.5;"/>
   </g>
   <g id="patch_3">
    <path d="M 52.160938 212.59375 
L 52.160938 46.27375 
" style="fill:none;stroke:#ffffff;stroke-linecap:square;stroke-linejoin:miter;stroke-width:0.8;"/>
   </g>
   <g id="patch_4">
    <path d="M 414.860937 212.59375 
L 414.860937 46.27375 
" style="fill:none;stroke:#ffffff;stroke-linecap:square;stroke-linejoin:miter;stroke-width:0.8;"/>
   </g>
   <g id="patch_5">
    <path d="M 52.160938 212.59375 
L 414.860938 212.59375 
" style="fill:none;stroke:#ffffff;stroke-linecap:square;stroke-linejoin:miter;stroke-width:0.8;"/>
   </g>
   <g id="patch_6">
    <path d="M 52.160938 46.27375 
L 414.860938 46.27375 
" style="fill:none;stroke:#ffffff;stroke-linecap:square;stroke-linejoin:miter;stroke-width:0.8;"/>
   </g>
   <g id="PathCollection_1">
    <defs>
     <path d="M 0 1.5 
C 0.397805 1.5 0.77937 1.341951 1.06066 1.06066 
C 1.341951 0.77937 1.5 0.397805 1.5 0 
C 1.5 -0.397805 1.341951 -0.77937 1.06066 -1.06066 
C 0.77937 -1.341951 0.397805 -1.5 0 -1.5 
C -0.397805 -1.5 -0.77937 -1.341951 -1.06066 -1.06066 
C -1.341951 -0.77937 -1.5 -0.397805 -1.5 0 
C -1.5 0.397805 -1.341951 0.77937 -1.06066 1.06066 
C -0.77937 1.341951 -0.397805 1.5 0 1.5 
z
" id="maad85030cf" style="stroke:#363636;"/>
    </defs>
    <g clip-path="url(#p3f778cdb4a)">
     <use style="fill:#ffffff;stroke:#363636;" x="88.430938" xlink:href="#maad85030cf" y="115.30789"/>
    </g>
   </g>
   <g id="PathCollection_2">
    <g clip-path="url(#p3f778cdb4a)">
     <use style="fill:#ffffff;stroke:#363636;" x="160.970938" xlink:href="#maad85030cf" y="112.131563"/>
    </g>
   </g>
   <g id="PathCollection_3">
    <g clip-path="url(#p3f778cdb4a)">
     <use style="fill:#ffffff;stroke:#363636;" x="233.510938" xlink:href="#maad85030cf" y="69.684347"/>
    </g>
   </g>
   <g id="PathCollection_4">
    <g clip-path="url(#p3f778cdb4a)">
     <use style="fill:#ffffff;stroke:#363636;" x="306.050938" xlink:href="#maad85030cf" y="75.931838"/>
    </g>
   </g>
   <g id="PathCollection_5">
    <g clip-path="url(#p3f778cdb4a)">
     <use style="fill:#ffffff;stroke:#363636;" x="378.590938" xlink:href="#maad85030cf" y="94.431706"/>
    </g>
   </g>
  </g>
 </g>
 <defs>
  <clipPath id="p3f778cdb4a">
   <rect height="166.32" width="362.7" x="52.160938" y="46.27375"/>
  </clipPath>
 </defs>
</svg>
